<svg xmlns="http://www.w3.org/2000/svg" viewBox="0 0 512 512" id="online-lecture"><path fill="#1c2b35" d="M480,293a8,8,0,0,0,8-8V93a8,8,0,0,0-8-8H160a8,8,0,0,0-8,8V213H96a8,8,0,0,0-8,8v30.29a40,40,0,0,0-19.16,68.53A72.1,72.1,0,0,0,24,386.48c0,8.25,4.38,19.71,25.24,27.39,10.56,3.89,24.11,6.29,38.76,6.93V437H32a8,8,0,0,0-8,8v32a8,8,0,0,0,8,8H480a8,8,0,0,0,8-8V445a8,8,0,0,0-8-8H424V293ZM104,229h48v56a8,8,0,0,0,8,8h24v24a8,8,0,0,0,8,8,40.08,40.08,0,0,0,39.2-32H408V437H104V420.8c14.65-.64,28.2-3,38.76-6.93,20.86-7.68,25.24-19.14,25.24-27.39a72.1,72.1,0,0,0-44.84-66.67A40,40,0,0,0,104,251.28Zm-8,37.49a24,24,0,1,1-24,24A24,24,0,0,1,96,266.48Zm-56,120a56,56,0,0,1,112,0c0,8.93-22.5,18.51-56,18.51S40,395.41,40,386.48ZM472,453v16H40V453ZM224,277a8,8,0,0,0-8,8,24,24,0,0,1-16,22.62V285a8,8,0,0,0-8-8H168V101H472V277Z"></path><circle cx="96" cy="290.48" r="24" fill="#dfe6e9"></circle><path fill="#dfe6e9" d="M152 386.48c0 8.93-22.5 18.51-56 18.51s-56-9.58-56-18.51a56 56 0 0 1 112 0zM168 101V277h24a8 8 0 0 1 8 8v22.62A24 24 0 0 0 216 285a8 8 0 0 1 8-8H472V101zM416 229H224a8 8 0 0 1 0-16H416a8 8 0 0 1 0 16zm0-32H224a8 8 0 0 1 0-16H416a8 8 0 0 1 0 16zm0-32H224a8 8 0 0 1 0-16H416a8 8 0 0 1 0 16z"></path><rect width="432" height="16" x="40" y="452.99" fill="#81b5e2"></rect><path fill="#81b5e2" d="M408,293V437H104V420.8c14.65-.64,28.2-3,38.76-6.93,20.86-7.68,25.24-19.14,25.24-27.39a72.1,72.1,0,0,0-44.84-66.67A40,40,0,0,0,104,251.28V229h48v56a8,8,0,0,0,8,8h24v24a8,8,0,0,0,8,8,40.08,40.08,0,0,0,39.2-32Z"></path><path fill="#1c2b35" d="M424 221a8 8 0 0 1-8 8H224a8 8 0 0 1 0-16H416A8 8 0 0 1 424 221zM424 189a8 8 0 0 1-8 8H224a8 8 0 0 1 0-16H416A8 8 0 0 1 424 189zM424 157a8 8 0 0 1-8 8H224a8 8 0 0 1 0-16H416A8 8 0 0 1 424 157z"></path><path fill="#c6ccce" d="M472,101V277H256V229H416a8,8,0,0,0,0-16H256V197H416a8,8,0,0,0,0-16H256V165H416a8,8,0,0,0,0-16H256V101Z"></path><rect width="152" height="144" x="256" y="292.99" fill="#6ca4d8"></rect><rect width="216" height="16" x="256" y="452.99" fill="#6ca4d8"></rect></svg>