<svg xmlns="http://www.w3.org/2000/svg" viewBox="0 0 64 64" id="message"><path fill="#ecf0f1" d="M35.5 8.5a2 2 0 0 0-2 2v12l3-2h13a2 2 0 0 0 2-2v-8a2 2 0 0 0-2-2h-14zM41.5 43.5a2 2 0 0 0-2 2v9l3-2h7a2 2 0 0 0 2-2v-5a2 2 0 0 0-2-2h-8zM30.5 41.5a2 2 0 0 1 2 2v9l-2.474-2H25.5a2 2 0 0 1-2-2v-5a2 2 0 0 1 2-2h5z"></path><path fill="#f8b545" d="M18.5 35.5a2 2 0 0 1 2 2v12l-3-2h-11a2 2 0 0 1-2-2v-8a2 2 0 0 1 2-2h12zM26.5 13.5a4 4 0 0 1 4 4v19l-4.875-4H8.5a4 4 0 0 1-4-4v-11a4 4 0 0 1 4-4h18zM39.5 23.5a4 4 0 0 0-4 4v16l4.875-4H55.5a4 4 0 0 0 4-4v-8a4 4 0 0 0-4-4h-16z"></path><path fill="#212e3a" d="M20.5 50a.498.498 0 0 1-.277-.084L17.349 48H6.5A2.503 2.503 0 0 1 4 45.5v-8C4 36.121 5.121 35 6.5 35h12c1.379 0 2.5 1.121 2.5 2.5v12a.498.498 0 0 1-.5.5zm-14-14c-.827 0-1.5.672-1.5 1.5v8c0 .827.673 1.5 1.5 1.5h11c.099 0 .195.029.277.084L20 48.565V37.5c0-.827-.673-1.5-1.5-1.5h-12zM33.5 23a.5.5 0 0 1-.5-.5v-12C33 9.121 34.121 8 35.5 8h14c1.379 0 2.5 1.121 2.5 2.5v8c0 1.379-1.121 2.5-2.5 2.5H36.651l-2.874 1.916A.506.506 0 0 1 33.5 23zm2-14c-.827 0-1.5.672-1.5 1.5v11.065l2.223-1.481A.496.496 0 0 1 36.5 20h13c.827 0 1.5-.673 1.5-1.5v-8c0-.828-.673-1.5-1.5-1.5h-14z"></path><path fill="#212e3a" d="M30.5 37a.504.504 0 0 1-.317-.113L25.446 33H8.5A4.505 4.505 0 0 1 4 28.5v-11C4 15.018 6.019 13 8.5 13h18c2.481 0 4.5 2.019 4.5 4.5v19a.5.5 0 0 1-.5.5zm-22-23C6.57 14 5 15.57 5 17.5v11C5 30.43 6.57 32 8.5 32h17.125c.115 0 .228.04.317.113L30 35.443V17.5c0-1.93-1.57-3.5-3.5-3.5h-18z"></path><path fill="#212e3a" d="M25.5 28h-16a.5.5 0 0 1 0-1h16a.5.5 0 0 1 0 1zM25.5 25h-16a.5.5 0 0 1 0-1h16a.5.5 0 0 1 0 1zM25.5 22h-16a.5.5 0 0 1 0-1h16a.5.5 0 0 1 0 1zM25.5 19h-16a.5.5 0 0 1 0-1h16a.5.5 0 0 1 0 1zM54.5 35h-14a.5.5 0 0 1 0-1h14a.5.5 0 0 1 0 1zM54.5 32h-14a.5.5 0 0 1 0-1h14a.5.5 0 0 1 0 1zM54.5 29h-14a.5.5 0 0 1 0-1h14a.5.5 0 0 1 0 1zM48.5 15h-12a.5.5 0 0 1 0-1h12a.5.5 0 0 1 0 1zM48.5 18h-12a.5.5 0 0 1 0-1h12a.5.5 0 0 1 0 1zM48.5 12h-12a.5.5 0 0 1 0-1h12a.5.5 0 0 1 0 1zM17.5 45h-10a.5.5 0 0 1 0-1h10a.5.5 0 0 1 0 1zM17.5 42h-10a.5.5 0 0 1 0-1h10a.5.5 0 0 1 0 1zM17.5 39h-10a.5.5 0 0 1 0-1h10a.5.5 0 0 1 0 1zM48.5 50h-6a.5.5 0 0 1 0-1h6a.5.5 0 0 1 0 1zM48.5 47h-6a.5.5 0 0 1 0-1h6a.5.5 0 0 1 0 1zM26.5 45.002c-.07 0-.13-.021-.19-.04a.372.372 0 0 1-.16-.11.346.346 0 0 1-.109-.16.432.432 0 0 1-.04-.189c0-.07.01-.13.04-.19a.444.444 0 0 1 .269-.27c.12-.061.26-.05.38 0 .061.02.12.06.16.1.05.05.09.101.11.17.03.061.04.12.04.19 0 .06-.01.13-.04.189a.366.366 0 0 1-.11.16c-.04.05-.1.09-.16.11-.06.019-.121.04-.19.04zM26.5 48.002c-.07 0-.13-.01-.19-.04a.372.372 0 0 1-.16-.11.346.346 0 0 1-.109-.16.432.432 0 0 1-.04-.189c0-.07.01-.13.04-.19a.444.444 0 0 1 .269-.27c.12-.05.25-.061.38 0 .061.02.12.06.16.1.101.101.15.23.15.36 0 .06-.01.13-.04.189a.366.366 0 0 1-.11.16.47.47 0 0 1-.35.15z"></path><path fill="#212e3a" d="M35.5 44a.5.5 0 0 1-.5-.5v-16c0-2.481 2.019-4.5 4.5-4.5h16c2.481 0 4.5 2.019 4.5 4.5v8c0 2.481-2.019 4.5-4.5 4.5H40.554l-4.736 3.887A.515.515 0 0 1 35.5 44zm4-20c-1.93 0-3.5 1.57-3.5 3.5v14.943l4.058-3.33a.502.502 0 0 1 .317-.113H55.5c1.93 0 3.5-1.57 3.5-3.5v-8c0-1.93-1.57-3.5-3.5-3.5h-16z"></path><path fill="#212e3a" d="M39.5 55a.5.5 0 0 1-.5-.5v-9c0-1.379 1.121-2.5 2.5-2.5h8c1.379 0 2.5 1.121 2.5 2.5v5c0 1.379-1.121 2.5-2.5 2.5h-6.849l-2.874 1.916A.506.506 0 0 1 39.5 55zm2-11c-.827 0-1.5.673-1.5 1.5v8.065l2.223-1.481A.496.496 0 0 1 42.5 52h7c.827 0 1.5-.673 1.5-1.5v-5c0-.827-.673-1.5-1.5-1.5h-8zM32.5 53a.5.5 0 0 1-.314-.111L29.85 51H25.5a2.502 2.502 0 0 1-2.5-2.5v-5c0-1.379 1.121-2.5 2.5-2.5h5c1.379 0 2.5 1.121 2.5 2.5v9a.5.5 0 0 1-.5.5zm-7-11c-.827 0-1.5.673-1.5 1.5v5c0 .827.673 1.5 1.5 1.5h4.526c.114 0 .226.039.314.111L32 51.453V43.5c0-.827-.673-1.5-1.5-1.5h-5z"></path><path fill="#212e3a" d="M29 48h-.5a.5.5 0 0 1 0-1h.5a1 1 0 0 0 0-2h-.5a.5.5 0 0 1 0-1h.5c1.103 0 2 .897 2 2s-.897 2-2 2z"></path></svg>